<svg xmlns="http://www.w3.org/2000/svg" viewBox="0 0 18.2 17.5"><defs><style>.cls-1,.cls-2{fill:none;stroke-linecap:round;stroke-linejoin:round;stroke-width:1.5px;}.cls-1{stroke:#696969;}.cls-2{stroke:#8e8c87;}</style></defs><title>Ресурс 1</title><g id="Слой_2" data-name="Слой 2"><g id="Слой_1-2" data-name="Слой 1"><rect class="cls-1" x="2.73" y="0.75" width="14.72" height="16" rx="2" ry="2"/><line class="cls-1" x1="0.75" y1="2.83" x2="0.77" y2="4.79"/><line class="cls-1" x1="0.75" y1="7.77" x2="0.77" y2="9.73"/><line class="cls-1" x1="0.75" y1="12.47" x2="0.77" y2="14.43"/><path class="cls-1" d="M7.9,9.7a4.68,4.68,0,0,1-.81-3.2A2.55,2.55,0,0,1,9.69,3.81H10A2.56,2.56,0,0,1,12.4,6.5a4.83,4.83,0,0,1-.81,3.2l1.25,1.48L9.9,14,7,11.15,8,9.85"/><path class="cls-2" d="M13.4,9.93"/><path class="cls-1" d="M8.1,9.89s1.88,1.34,3.35,0"/></g></g></svg>