<svg xmlns="http://www.w3.org/2000/svg" viewBox="0 0 17.72 12.67"><defs><style>.cls-1{fill:none;stroke:#696969;stroke-linecap:round;stroke-linejoin:round;stroke-width:1.5px;}.cls-2{fill:#696969;}</style></defs><title>Ресурс 1</title><g id="Слой_2" data-name="Слой 2"><g id="Слой_1-2" data-name="Слой 1"><circle class="cls-1" cx="5.57" cy="7.1" r="4.82"/><path class="cls-2" d="M5.15,10.39V9.62a3.24,3.24,0,0,1-1.37-.35L4,8.33a2.84,2.84,0,0,0,1.34.35c.46,0,.77-.18.77-.5s-.26-.5-.85-.7C4.41,7.2,3.83,6.8,3.83,6A1.49,1.49,0,0,1,5.19,4.58V3.82H6v.71a2.9,2.9,0,0,1,1.17.27l-.23.91a2.67,2.67,0,0,0-1.16-.27c-.52,0-.69.23-.69.45s.28.43,1,.69c1,.34,1.34.78,1.34,1.51A1.54,1.54,0,0,1,5.93,9.56v.82Z"/><path class="cls-2" d="M10,11.48a1.44,1.44,0,0,0,.22-.21,1.89,1.89,0,0,1-.19.21Z"/><path class="cls-2" d="M17.72,10.42v.06a1,1,0,0,1-1,1H11.93a7.51,7.51,0,0,0,1-2h3.79A1,1,0,0,1,17.72,10.42Z"/><path class="cls-2" d="M17.72,7.28v.06a1,1,0,0,1-1,1H13.19a7.24,7.24,0,0,0,.1-1.24,7.32,7.32,0,0,0,0-.81h3.47A1,1,0,0,1,17.72,7.28Z"/><path class="cls-2" d="M17.72,4.14V4.2a1,1,0,0,1-1,1H13a7.74,7.74,0,0,0-.86-2h4.53A1,1,0,0,1,17.72,4.14Z"/><path class="cls-2" d="M17.72,1v.06a1,1,0,0,1-1,1H11.41a7.82,7.82,0,0,0-2.8-2h8.11A1,1,0,0,1,17.72,1Z"/></g></g></svg>