<svg xmlns="http://www.w3.org/2000/svg" xmlns:xlink="http://www.w3.org/1999/xlink" viewBox="0 0 323.27 110.95"><defs><style>.cls-1{fill:url(#linear-gradient);}.cls-2{fill:url(#linear-gradient-2);}.cls-3{fill:url(#linear-gradient-3);}.cls-4{fill:#2d2d2d;}</style><linearGradient id="linear-gradient" x1="82.71" y1="-16277.4" x2="4.34" y2="-16199.03" gradientTransform="matrix(1, 0, 0, -1, 0, -16194.68)" gradientUnits="userSpaceOnUse"><stop offset="0" stop-color="#f58b1f"/><stop offset="0.49" stop-color="#ed6723"/><stop offset="1" stop-color="#ee3e30"/></linearGradient><linearGradient id="linear-gradient-2" x1="-22.92" y1="-16199.84" x2="93.16" y2="-16281.61" gradientTransform="matrix(1, 0, 0, -1, 0, -16194.68)" gradientUnits="userSpaceOnUse"><stop offset="0" stop-color="#c41e51"/><stop offset="0.17" stop-color="#b41d4a"/><stop offset="0.43" stop-color="#a21b43"/><stop offset="0.7" stop-color="#971a3e"/><stop offset="1" stop-color="#931a3d"/></linearGradient><linearGradient id="linear-gradient-3" x1="46.58" y1="-16272.55" x2="46.58" y2="-16236.16" xlink:href="#linear-gradient-2"/></defs><title>Ресурс 1</title><g id="Слой_2" data-name="Слой 2"><g id="OBJECTS"><g id="_Группа_" data-name="&lt;Группа&gt;"><path id="_Контур_" data-name="&lt;Контур&gt;" class="cls-1" d="M78.45,13.46A46,46,0,0,0,7.9,20.18a35.5,35.5,0,0,1,60.27,37.4,24.86,24.86,0,0,1-2.45,3.79,35.7,35.7,0,0,1-6.14,6.42L46,81.41,31.18,96.18,46,111l32.5-32.5A46,46,0,0,0,78.45,13.46Z"/><path id="_Контур_2" data-name="&lt;Контур&gt;" class="cls-2" d="M72.69,40.24A35.5,35.5,0,0,0,7.9,20.18l-.27.39c-.27.4-.53.8-.78,1.21l-.06.09a46,46,0,0,0,6.65,56.58L23.72,88.71,38.49,73.94,28.23,63.68a25.07,25.07,0,1,1,39.94-6.11A35.33,35.33,0,0,0,72.69,40.24Z"/><path id="_Контур_3" data-name="&lt;Контур&gt;" class="cls-3" d="M62.25,46.59a15.68,15.68,0,1,1-1.68-7.06A15.47,15.47,0,0,1,62.25,46.59Z"/></g><path class="cls-4" d="M119.08,49.34c-.2-2.33-1.75-3.57-4.55-3.57-2.43,0-3.88,1-3.88,2.73,0,2.09,2.56,2.26,7.35,3.61,4.28,1.21,7,2.87,7,6.88,0,5.66-5,7.75-9.88,7.75-6.51,0-10.35-3.13-10.42-8.56h5.22c.1,3.24,2.22,4.52,5.43,4.52,2.76,0,4.45-1.21,4.45-3.2s-1.62-2.22-6.57-3.64c-3.91-1.11-7.65-2.09-7.65-7,0-4.35,3.64-7.18,9.24-7.18,5.06,0,9.13,2.29,9.24,7.65Z"/><path class="cls-4" d="M148.61,56.62c0,6.84-3.2,10-10.21,10S128,63.4,128,56.55V42.19h5.26V56.55c0,3.67,1,5.76,5.16,5.76s4.89-2.22,4.89-5.76V42.19h5.26Z"/><path class="cls-4" d="M163.54,42.19c5.19,0,8.8,2.43,8.8,7.72s-3.71,7.65-8.53,7.65h-5.39v8.63h-5.22v-24Zm-5.12,11.22h4.69c2.36,0,4.11-.78,4.11-3.44s-1.75-3.47-4.08-3.47h-4.72Z"/><path class="cls-4" d="M193.64,46.51H180.86v5.22h11.73v4.15H180.86v5.9h13v4.42H175.64v-24h18Z"/><path class="cls-4" d="M209.61,42.19c4.42,0,8.09,2,8.09,6.81a6,6,0,0,1-3.81,5.9c2.66.54,3.34,3.24,3.54,5.6.13,1.52.2,4.82,1.15,5.7h-5.46c-.61-1.21-.61-3.61-.74-4.92-.34-3.3-1.35-4.48-4.79-4.48h-4.69v9.4h-5.22v-24ZM202.91,53h5c2.46,0,4.65-.44,4.65-3.4,0-2.76-2.19-3.24-4.42-3.24h-5.22Z"/><path class="cls-4" d="M232.19,42.19c5.19,0,8.8,2.43,8.8,7.72s-3.71,7.65-8.53,7.65h-5.39v8.63h-5.22v-24Zm-5.12,11.22h4.68c2.36,0,4.11-.78,4.11-3.44s-1.75-3.47-4.08-3.47h-4.72Z"/><path class="cls-4" d="M266.91,54.23c0,7.48-4.75,12.54-11.8,12.54s-11.86-5-11.86-12.54,4.72-12.61,11.9-12.61C262.16,41.62,266.91,46.71,266.91,54.23Zm-18.34-.1c0,5.16,2.49,8.26,6.57,8.29s6.44-3.17,6.44-8.29-2.49-8.19-6.5-8.19S248.57,49.14,248.57,54.13Z"/><path class="cls-4" d="M275.81,66.19h-5.29v-24h5.29Z"/><path class="cls-4" d="M280.46,42.19h5.36l9.88,16.08V42.19h5.06v24h-5.26l-9.94-16.11V66.19h-5.09Z"/><path class="cls-4" d="M323.27,46.68h-7.21V66.19h-5.29V46.68h-7.21V42.19h19.72Z"/></g></g></svg>