<svg xmlns="http://www.w3.org/2000/svg" viewBox="0 0 15.38 16.44"><defs><style>.cls-1{fill:none;stroke:#696969;stroke-linecap:round;stroke-linejoin:round;stroke-width:1.5px;}.cls-2{fill:#696969;}</style></defs><title>Ресурс 1</title><g id="Слой_2" data-name="Слой 2"><g id="Слой_1-2" data-name="Слой 1"><path class="cls-1" d="M14.63,15.69l-1.63-4A6.84,6.84,0,1,0,9.83,14h0Z"/><path class="cls-2" d="M8.48,9.53H6.9a3.49,3.49,0,0,1,.19-1.36,3,3,0,0,1,1-1.08A1.46,1.46,0,0,0,8.86,5.9,1.13,1.13,0,0,0,8.48,5a1.21,1.21,0,0,0-.78-.24A1.24,1.24,0,0,0,6.82,5,1.69,1.69,0,0,0,6.4,6.1H4.71a2.63,2.63,0,0,1,.95-2.18A3,3,0,0,1,7.59,3.3,3.43,3.43,0,0,1,9.87,4a2.27,2.27,0,0,1,.79,1.85,2.07,2.07,0,0,1-.37,1.22,4.81,4.81,0,0,1-1.08,1,1.85,1.85,0,0,0-.55.54A1.93,1.93,0,0,0,8.48,9.53Zm.12.8V12H6.85V10.33Z"/></g></g></svg>