<svg xmlns="http://www.w3.org/2000/svg" viewBox="0 0 16.29 13.15"><defs><style>.cls-1,.cls-2{fill:none;stroke:#8a8a8a;stroke-width:1.5px;}.cls-1{stroke-miterlimit:10;}.cls-2{stroke-linecap:round;stroke-linejoin:round;}.cls-3{fill:#8a8a8a;}</style></defs><title>Ресурс 2</title><g id="Слой_2" data-name="Слой 2"><g id="Layer_1" data-name="Layer 1"><path class="cls-1" d="M11.11,6.82a2.79,2.79,0,1,0,2.79,2.79,2.79,2.79,0,0,0-2.79-2.79Z"/><path class="cls-2" d="M11.18,10.81"/><path class="cls-2" d="M14.19,5.19h-.32a.35.35,0,0,1-.32-.25L12.26,1a.35.35,0,0,0-.33-.25H8.36A.36.36,0,0,0,8,1.06L6.6,9.15a.42.42,0,0,0,.07.32.33.33,0,0,0,.27.14h1.4a3,3,0,0,1,2.78-3,3,3,0,0,1,2.78,3h1.28a.37.37,0,0,0,.35-.38V6.7a1.45,1.45,0,0,0-1.35-1.52Z"/><path class="cls-2" d="M12.28,4"/><path class="cls-3" d="M6.81,9H1.16c-.52,0-.94.11-.94.63s.42.63.94.63H6.81c.52,0,.94-.11.94-.63S7.32,9,6.81,9Z"/><line class="cls-2" x1="1.59" y1="0.75" x2="9.06" y2="0.75"/><line class="cls-2" x1="1.34" y1="3.51" x2="5.67" y2="3.51"/><line class="cls-2" x1="0.75" y1="6.73" x2="5.08" y2="6.73"/></g></g></svg>